name Walk7.mot
datacolumns 19
datarows 12
range 2.44000000 2.49500000
endheader

                time	   L_ground_force_vx	   L_ground_force_vy	   L_ground_force_vz	   L_ground_force_px	   L_ground_force_py	   L_ground_force_pz	   R_ground_force_vx	   R_ground_force_vy	   R_ground_force_vz	   R_ground_force_px	   R_ground_force_py	   R_ground_force_pz	   L_ground_torque_x	   L_ground_torque_y	   L_ground_torque_z	   R_ground_torque_x	   R_ground_torque_y	   R_ground_torque_z	
          2.44000000	          0.06359337	          0.18127983	         -0.00257665	         -0.00033952	          0.00000000	         -0.00011378	        -18.46972703	        681.05877479	        -45.26410643	          0.21446647	          0.00000000	          0.07539619	          0.00000000	          0.00094475	          0.00000000	          0.00000000	          7.43878954	          0.00000000	
          2.44500000	          0.05069428	          0.13637550	         -0.00278715	         -0.00031576	          0.00000000	         -0.00010655	        -16.72499050	        675.15039850	        -44.80676017	          0.21507280	          0.00000000	          0.07527251	          0.00000000	          0.00080341	          0.00000000	          0.00000000	          7.14306652	          0.00000000	
          2.45000000	          0.03841303	          0.09679357	         -0.00270171	         -0.00027555	          0.00000000	         -0.00009348	        -15.04828185	        669.59992255	        -44.32154215	          0.21573467	          0.00000000	          0.07513890	          0.00000000	          0.00064923	          0.00000000	          0.00000000	          6.85379561	          0.00000000	
          2.45500000	          0.02749930	          0.06375525	         -0.00243324	         -0.00022797	          0.00000000	         -0.00007770	        -13.44284484	        664.49214255	        -43.78221240	          0.21644574	          0.00000000	          0.07499422	          0.00000000	          0.00049901	          0.00000000	          0.00000000	          6.56723204	          0.00000000	
          2.46000000	          0.01832568	          0.03752614	         -0.00206864	         -0.00017943	          0.00000000	         -0.00006144	        -11.90919287	        659.89802410	        -43.16712586	          0.21720029	          0.00000000	          0.07483906	          0.00000000	          0.00036322	          0.00000000	          0.00000000	          6.27968639	          0.00000000	
          2.46500000	          0.01099347	          0.01773806	         -0.00167123	         -0.00013411	          0.00000000	         -0.00004616	        -10.44531059	        655.87061086	        -42.46531418	          0.21799443	          0.00000000	          0.07467644	          0.00000000	          0.00024740	          0.00000000	          0.00000000	          5.98814973	          0.00000000	
          2.47000000	          0.00542202	          0.00364548	         -0.00128420	         -0.00009444	          0.00000000	         -0.00003270	         -9.04752223	        652.44419507	        -41.67898134	          0.21882744	          0.00000000	          0.07451101	          0.00000000	          0.00015357	          0.00000000	          0.00000000	          5.69107432	          0.00000000	
          2.47500000	          0.00142034	         -0.00568013	         -0.00093444	         -0.00006153	          0.00000000	         -0.00002149	         -7.71108836	        649.63128151	        -40.82287782	          0.21970277	          0.00000000	          0.07434855	          0.00000000	          0.00008125	          0.00000000	          0.00000000	          5.38887545	          0.00000000	
          2.48000000	         -0.00125820	         -0.01121124	         -0.00063624	         -0.00003556	          0.00000000	         -0.00001260	         -6.42999909	        647.41811993	        -39.92235571	          0.22062539	          0.00000000	          0.07419620	          0.00000000	          0.00002845	          0.00000000	          0.00000000	          5.08344597	          0.00000000	
          2.48500000	         -0.00287638	         -0.01387155	         -0.00039470	         -0.00001610	          0.00000000	         -0.00000590	         -5.19648366	        645.76468431	        -39.01146076	          0.22160075	          0.00000000	          0.07406372	          0.00000000	         -0.00000766	          0.00000000	          0.00000000	          4.77748366	          0.00000000	
          2.49000000	         -0.00368660	         -0.01448049	         -0.00020858	         -0.00000234	          0.00000000	         -0.00000114	         -4.00151277	        644.61007617	        -38.12986807	          0.22263475	          0.00000000	          0.07396184	          0.00000000	         -0.00003021	          0.00000000	          0.00000000	          4.47427807	          0.00000000	
          2.49500000	         -0.00391462	         -0.01372576	         -0.00007273	          0.00000667	          0.00000000	          0.00000201	         -2.83625034	        643.88461586	        -37.31859039	          0.22373357	          0.00000000	          0.07390050	          0.00000000	         -0.00004229	          0.00000000	          0.00000000	          4.17734987	          0.00000000	
